<?xml version="1.0" standalone="no"?>
<!DOCTYPE svg PUBLIC "-//W3C//DTD SVG 20010904//EN"
 "http://www.w3.org/TR/2001/REC-SVG-20010904/DTD/svg10.dtd">
<svg version="1.0" xmlns="http://www.w3.org/2000/svg"
 width="46.000000pt" height="46.000000pt" viewBox="0 0 46.000000 46.000000"
 preserveAspectRatio="xMidYMid meet">
<metadata>
Created by potrace 1.11, written by Peter Selinger 2001-2013
</metadata>
<g transform="translate(0.000000,46.000000) scale(0.100000,-0.100000)"
fill="#000000" stroke="none">
<path d="M29 431 l-29 -29 0 -177 c0 -239 -14 -225 230 -225 244 0 230 -14
230 225 l0 177 -29 29 -29 29 -172 0 -172 0 -29 -29z m361 -95 c0 -30 -3 -35
-27 -38 -22 -2 -29 -9 -31 -30 -3 -25 0 -28 28 -28 29 0 31 -2 28 -32 -2 -28
-8 -34 -30 -36 -28 -3 -28 -4 -28 -83 l0 -79 -40 0 -40 0 0 80 c0 73 -2 80
-20 80 -16 0 -20 7 -20 35 0 28 4 35 20 35 15 0 20 7 20 29 0 71 29 99 103
100 36 1 37 0 37 -33z"/>
</g>
</svg>
