<?xml version="1.0" standalone="no"?>
<!DOCTYPE svg PUBLIC "-//W3C//DTD SVG 20010904//EN"
 "http://www.w3.org/TR/2001/REC-SVG-20010904/DTD/svg10.dtd">
<svg version="1.0" xmlns="http://www.w3.org/2000/svg"
 width="16.000000pt" height="16.000000pt" viewBox="0 0 16.000000 16.000000"
 preserveAspectRatio="xMidYMid meet">
<metadata>
Created by potrace 1.11, written by Peter Selinger 2001-2013
</metadata>
<g transform="translate(0.000000,16.000000) scale(0.100000,-0.100000)"
fill="#000000" stroke="none">
<path d="M11 146 c-7 -9 -11 -40 -9 -78 l3 -63 43 -3 c41 -3 42 -2 42 27 0 16
-5 31 -10 33 -18 6 19 68 41 68 22 0 24 -11 7 -28 -10 -10 -10 -15 2 -22 10
-7 12 -12 4 -18 -6 -4 -13 -20 -16 -35 -5 -24 -2 -28 16 -25 18 3 21 11 24 66
2 38 -2 69 -9 78 -16 19 -122 19 -138 0z"/>
</g>
</svg>
